<svg width="50" height="50" viewBox="0 0 50 50" fill="none" xmlns="http://www.w3.org/2000/svg">
<path d="M15.5943 18.5798C9.06236 13.6973 5.81997 6.14897 4.90566 6.24161C3.22051 6.41235 4.15783 10.7959 5.97564 14.3834C7.08814 16.579 9.22128 18.425 9.26026 18.9756C9.36295 20.4261 1.86241 15.708 2.10641 17.4509C2.35042 19.1939 3.80906 21 6.2197 22.8889C8.39906 24.5965 11.8087 26.107 11.6925 26.3653C11.3274 27.1764 7.44429 25.8881 6.2197 26.3653C4.99512 26.8425 8.05885 29.308 11.2972 30.7174C13.3578 31.6142 16.3145 31.311 16.3145 31.5117C16.3145 32.2474 15.5313 33.253 13.4113 33.7774C12.2566 34.063 15.6444 35.7717 19.0032 35.559C21.7727 35.3835 23.4614 34.8037 24.55 34.2191C21.1048 39.6182 15.4508 43.9948 12.2363 46.0427C11.9502 46.225 12.0778 46.7269 12.4166 46.7457C15.3884 46.9112 21.9891 47.097 30.7712 42.3983C39.1591 37.9105 41.1299 31.6437 42.3175 27.487C43.1258 24.658 45.806 23.5067 47.6037 23.1719C47.9013 23.1164 48.0123 22.73 47.7582 22.5654C45.8349 21.3195 41.9805 19.7593 37.633 20.8231C34.1991 21.6633 32.0596 23.2923 30.0164 25.8782C29.927 25.9913 29.7767 26.0363 29.6415 25.9859C26.3513 24.7584 20.2567 22.0648 15.5943 18.5798Z" fill="url(#paint0_linear_22_10)"/>
<path d="M28.2991 14.3305C23.1034 9.4444 20.8471 3.20099 20.0434 3.19147C18.5622 3.17392 18.9451 7.07557 20.1716 10.3722C20.9222 12.3898 22.5942 14.204 22.5738 14.6864C22.5203 15.9569 16.4667 11.1183 16.5071 12.657C16.6011 16.2329 26.8791 23.4429 29.0025 22.9996C29.1207 22.9749 29.2174 22.8925 29.3028 22.8072C32.115 19.9989 33.1112 20.0885 33.2523 19.4199C33.4618 18.4272 31.0551 16.9224 28.2991 14.3305Z" fill="url(#paint1_linear_22_10)"/>
<defs>
<linearGradient id="paint0_linear_22_10" x1="44.4742" y1="7.77405" x2="3.38068" y2="19.7633" gradientUnits="userSpaceOnUse">
<stop stop-color="#57F5D9"/>
<stop offset="1" stop-color="#109D5A"/>
</linearGradient>
<linearGradient id="paint1_linear_22_10" x1="44.4742" y1="7.77405" x2="3.38068" y2="19.7633" gradientUnits="userSpaceOnUse">
<stop stop-color="#57F5D9"/>
<stop offset="1" stop-color="#109D5A"/>
</linearGradient>
</defs>
</svg>
